<?xml version="1.0" encoding="UTF-8" standalone="no"?>
<!DOCTYPE svg PUBLIC "-//W3C//DTD SVG 1.1//EN" "http://www.w3.org/Graphics/SVG/1.1/DTD/svg11.dtd">
<svg width="100%" height="100%" viewBox="0 0 800 800" version="1.1" xmlns="http://www.w3.org/2000/svg" xmlns:xlink="http://www.w3.org/1999/xlink" xml:space="preserve" xmlns:serif="http://www.serif.com/" style="fill-rule:evenodd;clip-rule:evenodd;stroke-linejoin:round;stroke-miterlimit:1.41421;">
    <g transform="matrix(0.950373,0,0,0.950373,-1141.34,0.00620341)">
        <path d="M1901.1,415.2C1912,390.3 1901.2,383.5 1894,344.6C1890.7,326.6 1884.6,307.3 1874.6,288.9L1438.3,403.3C1437,420.1 1437.4,436.3 1439.8,451.1C1448.1,503.8 1479.3,568.4 1499.6,595.9C1519.9,623.4 1529.8,643.6 1530.7,661.7C1533.4,713.9 1522.1,764.6 1489.8,841.8C1489.8,841.8 1758.8,841.8 1782.6,841.9C1776.8,830.3 1773.3,823.5 1771.2,804.8C1768.4,780.9 1772.4,753.2 1778.4,734.8C1782.5,722.4 1797.4,713.8 1811.8,713.6C1835.4,713.2 1856.6,720.6 1893.3,713.8C1912.3,710.3 1911.3,682.1 1906.5,662.3C1901.8,642.6 1917.4,638.4 1917.2,630.3C1917.1,625.8 1919,622.4 1907.7,615.6C1928.4,604.4 1921.2,594 1917.5,585.7C1904,556.2 1919.1,556.3 1925.1,554C1931.1,551.6 1947.3,548.6 1949,535.5C1950.8,522.3 1930.9,497.6 1915.3,476.7C1899.7,455.7 1892.3,435.6 1901.1,415.2Z" style="fill-rule:nonzero;"/>
    </g>
    <g transform="matrix(0.950373,0,0,0.950373,-1141.34,0.00620341)">
        <path d="M1377,35.3C1341.9,67.9 1322.5,115.3 1309.4,177C1297,235.3 1311.1,298.6 1344.6,341.2C1365.4,367.7 1401.9,390.7 1438.4,403.3L1438,2.5C1417.1,7.7 1395.9,17.8 1377,35.3Z" style="fill-rule:nonzero;"/>
    </g>
    <g transform="matrix(0.950373,0,0,0.950373,-1141.34,0.00620341)">
        <path d="M1632.9,71.5C1593.7,71.5 1561.9,103.3 1561.9,142.5C1561.9,155.4 1565.5,167.4 1571.4,177.9C1588.8,209.3 1593.4,226.9 1596.3,244C1598.7,258.3 1602,261.6 1612.8,261.6L1653,261.6C1663.8,261.6 1667.1,258.3 1669.5,244C1672.3,226.9 1677,209.3 1694.4,177.9C1700.2,167.4 1703.9,155.4 1703.9,142.5C1703.8,103.3 1672.1,71.5 1632.9,71.5Z" style="fill-rule:nonzero;"/>
    </g>
    <g transform="matrix(0.950373,0,0,0.950373,-1141.34,0.00620341)">
        <path d="M1658.2,266.7L1607.5,266.7C1605.4,266.7 1603.7,268.4 1603.7,270.5L1603.7,273C1603.7,275.1 1605.4,276.8 1607.5,276.8L1658.2,276.8C1660.3,276.8 1662,275.1 1662,273L1662,270.5C1662,268.4 1660.3,266.7 1658.2,266.7Z" style="fill-rule:nonzero;"/>
    </g>
    <g transform="matrix(0.950373,0,0,0.950373,-1141.34,0.00620341)">
        <path d="M1658.2,283.2L1607.5,283.2C1605.4,283.2 1603.7,284.9 1603.7,287L1603.7,289.5C1603.7,291.6 1605.4,293.3 1607.5,293.3L1658.2,293.3C1660.3,293.3 1662,291.6 1662,289.5L1662,287C1662,284.9 1660.3,283.2 1658.2,283.2Z" style="fill-rule:nonzero;"/>
    </g>
    <g transform="matrix(0.950373,0,0,0.950373,-1141.34,0.00620341)">
        <path d="M1613.9,298.4L1651.9,298.4C1651.9,306 1641.8,311.1 1632.9,311.1C1624,311.1 1613.9,306 1613.9,298.4Z" style="fill-rule:nonzero;"/>
    </g>
    <g transform="matrix(0.950373,0,0,0.950373,-1141.34,0.00620341)">
        <path d="M1709.6,31.8C1709.6,31.9 1709.6,31.9 1709.6,31.8C1704.7,40.3 1688.9,67.6 1684.6,75C1679.7,71.1 1674.4,67.7 1668.7,65C1673.8,56.2 1690.7,27 1693.3,22.3C1699.4,11.9 1715.6,21.3 1709.6,31.8Z" style="fill-rule:nonzero;"/>
    </g>
    <g transform="matrix(0.950373,0,0,0.950373,-1141.34,0.00620341)">
        <path d="M1751.3,89.1C1744.7,92.9 1720.5,106.9 1711.2,112.2C1709.1,106.2 1706.3,100.6 1702.9,95.3C1712.9,89.6 1735.4,76.5 1741.8,72.8C1752.4,66.8 1761.8,83 1751.3,89.1Z" style="fill-rule:nonzero;"/>
    </g>
    <g transform="matrix(0.950373,0,0,0.950373,-1141.34,0.00620341)">
        <path d="M1642.6,9.2L1642.6,57.5C1639.4,57.1 1636.2,56.9 1632.9,56.9C1629.8,56.9 1626.8,57.1 1623.8,57.4L1623.8,9.2C1623.8,-2.9 1642.6,-2.9 1642.6,9.2Z" style="fill-rule:nonzero;"/>
    </g>
    <g transform="matrix(0.950373,0,0,0.950373,-1141.34,0.00620341)">
        <path d="M1597,65.1C1591.3,67.8 1586,71.2 1581.1,75.1C1576.8,67.7 1561,40.3 1556.2,31.9C1550.2,21.4 1566.4,12 1572.5,22.5C1575.1,27 1592,56.3 1597,65.1Z" style="fill-rule:nonzero;"/>
    </g>
    <g transform="matrix(0.950373,0,0,0.950373,-1141.34,0.00620341)">
        <path d="M1562.9,95.1C1559.5,100.4 1556.7,106 1554.6,112C1545.1,106.5 1521.4,92.8 1514.8,89C1504.3,82.9 1513.7,66.7 1524.2,72.7C1530.6,76.5 1552.8,89.3 1562.9,95.1Z" style="fill-rule:nonzero;"/>
    </g>
</svg>
