<?xml version="1.0" standalone="no"?>
<!DOCTYPE svg PUBLIC "-//W3C//DTD SVG 20010904//EN"
 "http://www.w3.org/TR/2001/REC-SVG-20010904/DTD/svg10.dtd">
<svg version="1.0" xmlns="http://www.w3.org/2000/svg"
 width="981.000000pt" height="984.000000pt" viewBox="0 0 981.000000 984.000000"
 preserveAspectRatio="xMidYMid meet">
<metadata>
Created by potrace 1.15, written by Peter Selinger 2001-2017
</metadata>
<g transform="translate(0.000000,984.000000) scale(0.100000,-0.100000)"
fill="#000000" stroke="none">
<path d="M518 9807 c-138 -42 -247 -123 -326 -241 -64 -96 -92 -178 -99 -291
-9 -154 42 -301 144 -415 84 -95 1664 -1843 1697 -1878 l30 -33 -478 -478
-479 -479 12 -63 c25 -123 100 -232 202 -292 101 -60 48 -58 1425 -55 l1259 3
68 32 c90 43 169 119 210 202 l32 66 0 1295 0 1295 -34 67 c-55 111 -156 192
-276 224 -95 26 -58 56 -592 -478 l-493 -493 -39 40 c-21 22 -406 443 -856
935 -480 526 -842 915 -878 943 -34 26 -98 61 -142 78 -69 28 -95 32 -195 35
-99 4 -126 1 -192 -19z"/>
<path d="M9224 9786 c-91 -21 -193 -67 -287 -129 -80 -54 -260 -222 -1607
-1499 l-365 -347 -491 490 -491 491 -58 -11 c-164 -30 -288 -138 -336 -290
-18 -61 -19 -102 -19 -1311 0 -1180 1 -1251 18 -1307 50 -159 184 -271 352
-293 99 -12 2360 -13 2458 0 186 24 329 161 364 348 l12 63 -483 483 -484 484
914 947 c503 521 932 971 953 999 77 102 116 220 116 356 0 105 -19 182 -67
278 -101 202 -290 295 -499 248z"/>
<path d="M1362 4229 c-166 -32 -315 -191 -329 -350 l-6 -58 479 -485 c264
-268 479 -489 479 -494 0 -4 -362 -360 -805 -791 -1076 -1046 -1069 -1039
-1114 -1133 -66 -138 -82 -274 -47 -410 74 -289 317 -470 611 -455 119 6 212
36 302 97 56 38 894 846 1741 1679 l168 165 483 -483 484 -484 57 6 c175 18
329 173 355 359 13 90 13 2406 0 2488 -28 175 -166 318 -339 350 -66 12 -2456
12 -2519 -1z"/>
<path d="M5865 4212 c-120 -42 -205 -117 -258 -230 l-32 -67 0 -1280 0 -1280
22 -55 c60 -147 182 -241 346 -265 l43 -7 491 486 491 486 924 -929 c640 -643
943 -941 985 -968 99 -64 187 -88 323 -88 142 0 229 25 337 98 248 166 331
490 197 767 -35 72 -66 104 -678 720 -352 355 -776 781 -941 948 l-300 302
483 483 c523 523 494 487 468 582 -32 122 -109 216 -224 272 l-76 38 -1275 2
c-1191 2 -1279 1 -1326 -15z"/>
</g>
</svg>
