<svg id="SvgjsSvg1001" width="288" height="288" xmlns="http://www.w3.org/2000/svg" version="1.1" xmlnsXlink="http://www.w3.org/1999/xlink" xmlnsSvgjs="http://svgjs.com/svgjs"><defs id="SvgjsDefs1002"></defs><g id="SvgjsG1008"><svg xmlns="http://www.w3.org/2000/svg" fill-rule="evenodd" stroke-linejoin="round" stroke-miterlimit="1.414" clip-rule="evenodd" viewBox="0 0 800 800" width="288" height="288"><path fill-rule="nonzero" d="M94.1,29.8C91.2,30.4 86.9,31.3 82.2,31.9L68.9,18.5C69.5,13.4 70.5,8.7 71.1,5.9C71.2,5.2 70.4,4.8 69.9,5.3L65,10.2C63.7,11.5 62.8,13.1 62.4,14.8C61.3,19.3 59.9,28.9 62.5,43.4C62.5,43.4 62.7,45.5 62.7,48.4L52.4,37.9C55.4,37.9 57.4,38.1 57.4,38.1C58.4,38.3 59.4,38.4 60.4,38.6C60,35.8 59.8,33.2 59.7,30.9C51.7,30.2 45.4,31.9 43,32.7L43,33.3C42.9,33.6 42.8,34.1 42.7,34.7C42.5,35.7 42.2,37 41.9,38.7C44.1,38.3 46.3,38.1 48.4,38L62.8,52.4C62.6,56.9 61.9,62.1 60,65.7C59.9,65.9 60.2,66.2 60.4,66L66.9,59.5C67.4,59 67.8,58.4 68,57.7C69,54.8 71.3,46.2 69,35.7C68.1,31.8 68.1,27 68.5,22.3L78.5,32.3C75.6,32.5 72.7,32.6 69.9,32.5C70,33.5 70.2,34.5 70.4,35.4C70.7,36.9 71,38.3 71.1,39.7C78.1,39.9 83.1,39.1 86,38.4C87.8,38 89.3,37.1 90.6,35.8L94.9,31.5C95.6,30.7 95,29.6 94.1,29.8Z" transform="translate(-45.835 -45.035) scale(8.88613)" fill="#6a6a6a" class="color000 svgShape"></path><path fill-rule="nonzero" d="M51.8,61.3L38.8,48.3C39.5,42.2 40.8,36.6 41.4,34C41.5,33.7 41.1,33.5 40.9,33.7L34.8,39.8C33.7,40.9 33,42.2 32.6,43.6C31.5,47.8 29.9,57.6 32.6,72.7C32.6,72.7 32.8,74.8 32.8,77.9L22.2,67.3C25.2,67.3 27.4,67.5 27.4,67.5C28.4,67.7 29.4,67.8 30.4,68C30,65.2 29.8,62.6 29.7,60.3C23.1,59.7 17.6,60.8 14.6,61.6C13,62 11.6,62.9 10.4,64.1L5.3,69.2C5,69.5 5.3,69.9 5.7,69.8C9.2,68.2 14,67.6 18.2,67.4L32.7,81.9C32.5,86.1 31.9,91 30.2,94.5C30,94.8 30.5,95.1 30.7,94.9L36.5,89.1C37.2,88.4 37.7,87.6 38,86.7C39,83.4 41.1,75.2 38.9,65.2C38,61.4 38,56.7 38.4,52.1L48.1,61.8C45.3,62 42.5,62.1 39.9,61.9C40,62.9 40.2,63.9 40.4,64.8C40.7,66.3 41,67.7 41.1,69.1C55.9,69.1 57.5,66.8 57.5,66.8C58.9,65.3 59.9,62.8 60.4,60C57.9,60.4 54.9,60.9 51.8,61.3Z" transform="translate(-45.835 -45.035) scale(8.88613)" fill="#6a6a6a" class="color000 svgShape"></path><path fill-rule="nonzero" d="M41.7 43.3L57.1 58.7C57.4 59 57.7 59.1 58.1 59.1 58.5 59.1 58.8 59 59.1 58.7 59.7 58.1 59.7 57.2 59.1 56.7L43.7 41.3C43.1 40.7 42.2 40.7 41.7 41.3 41.1 41.8 41.1 42.7 41.7 43.3zM87.7 29.4C88 29.7 88.3 29.8 88.7 29.8 89.1 29.8 89.4 29.7 89.7 29.4 90.3 28.8 90.3 27.9 89.7 27.4L74.3 11.9C73.7 11.3 72.8 11.3 72.3 11.9 71.7 12.5 71.7 13.4 72.3 13.9L87.7 29.4zM13.7 70.9C13.1 70.3 12.2 70.3 11.7 70.9 11.1 71.5 11.1 72.4 11.7 72.9L27.1 88.3C27.4 88.6 27.7 88.7 28.1 88.7 28.5 88.7 28.8 88.6 29.1 88.3 29.7 87.7 29.7 86.8 29.1 86.3L13.7 70.9z" transform="translate(-45.835 -45.035) scale(8.88613)" fill="#6a6a6a" class="color000 svgShape"></path></svg></g></svg>