<svg xmlns="http://www.w3.org/2000/svg" xmlns:xlink="http://www.w3.org/1999/xlink" version="1.1" x="0px" y="0px" viewBox="0 0 100 125" enable-background="new 0 0 100 100" xml:space="preserve"><g><path d="M94.1,29.8c-2.9,0.6-7.2,1.5-11.9,2.1L68.9,18.5c0.6-5.1,1.6-9.8,2.2-12.6c0.1-0.7-0.7-1.1-1.2-0.6L65,10.2   c-1.3,1.3-2.2,2.9-2.6,4.6c-1.1,4.5-2.5,14.1,0.1,28.6c0,0,0.2,2.1,0.2,5L52.4,37.9c3,0,5,0.2,5,0.2c1,0.2,2,0.3,3,0.5   c-0.4-2.8-0.6-5.4-0.7-7.7c-8-0.7-14.3,1-16.7,1.8v0.6c-0.1,0.3-0.2,0.8-0.3,1.4c-0.2,1-0.5,2.3-0.8,4c2.2-0.4,4.4-0.6,6.5-0.7   l14.4,14.4c-0.2,4.5-0.9,9.7-2.8,13.3c-0.1,0.2,0.2,0.5,0.4,0.3l6.5-6.5c0.5-0.5,0.9-1.1,1.1-1.8c1-2.9,3.3-11.5,1-22   c-0.9-3.9-0.9-8.7-0.5-13.4l10,10c-2.9,0.2-5.8,0.3-8.6,0.2c0.1,1,0.3,2,0.5,2.9c0.3,1.5,0.6,2.9,0.7,4.3c7,0.2,12-0.6,14.9-1.3   c1.8-0.4,3.3-1.3,4.6-2.6l4.3-4.3C95.6,30.7,95,29.6,94.1,29.8z"/><path d="M51.8,61.3l-13-13c0.7-6.1,2-11.7,2.6-14.3c0.1-0.3-0.3-0.5-0.5-0.3l-6.1,6.1c-1.1,1.1-1.8,2.4-2.2,3.8   c-1.1,4.2-2.7,14,0,29.1c0,0,0.2,2.1,0.2,5.2L22.2,67.3c3,0,5.2,0.2,5.2,0.2c1,0.2,2,0.3,3,0.5c-0.4-2.8-0.6-5.4-0.7-7.7   c-6.6-0.6-12.1,0.5-15.1,1.3c-1.6,0.4-3,1.3-4.2,2.5l-5.1,5.1c-0.3,0.3,0,0.7,0.4,0.6c3.5-1.6,8.3-2.2,12.5-2.4l14.5,14.5   c-0.2,4.2-0.8,9.1-2.5,12.6c-0.2,0.3,0.3,0.6,0.5,0.4l5.8-5.8c0.7-0.7,1.2-1.5,1.5-2.4c1-3.3,3.1-11.5,0.9-21.5   c-0.9-3.8-0.9-8.5-0.5-13.1l9.7,9.7c-2.8,0.2-5.6,0.3-8.2,0.1c0.1,1,0.3,2,0.5,2.9c0.3,1.5,0.6,2.9,0.7,4.3   c14.8,0,16.4-2.3,16.4-2.3c1.4-1.5,2.4-4,2.9-6.8C57.9,60.4,54.9,60.9,51.8,61.3z"/><path d="M41.7,43.3l15.4,15.4c0.3,0.3,0.6,0.4,1,0.4s0.7-0.1,1-0.4c0.6-0.6,0.6-1.5,0-2L43.7,41.3c-0.6-0.6-1.5-0.6-2,0   C41.1,41.8,41.1,42.7,41.7,43.3z"/><path d="M87.7,29.4c0.3,0.3,0.6,0.4,1,0.4s0.7-0.1,1-0.4c0.6-0.6,0.6-1.5,0-2L74.3,11.9c-0.6-0.6-1.5-0.6-2,0c-0.6,0.6-0.6,1.5,0,2   L87.7,29.4z"/><path d="M13.7,70.9c-0.6-0.6-1.5-0.6-2,0c-0.6,0.6-0.6,1.5,0,2l15.4,15.4c0.3,0.3,0.6,0.4,1,0.4s0.7-0.1,1-0.4c0.6-0.6,0.6-1.5,0-2   L13.7,70.9z"/></g><text x="0" y="115" fill="#000000" font-size="5px" font-weight="bold" font-family="'Helvetica Neue', Helvetica, Arial-Unicode, Arial, Sans-serif">Created by parkjisun</text><text x="0" y="120" fill="#000000" font-size="5px" font-weight="bold" font-family="'Helvetica Neue', Helvetica, Arial-Unicode, Arial, Sans-serif">from the Noun Project</text></svg>